<svg xmlns="http://www.w3.org/2000/svg" width="293.179" height="62" viewBox="0 0 293.179 62">
  <g id="Group_37" data-name="Group 37" transform="translate(-930 -721)">
    <text id="A" transform="translate(930 743)" font-size="25" font-family="Philosopher-Bold, Philosopher" font-weight="700"><tspan x="0" y="0">A</tspan></text>
    <text id="E" transform="translate(1143 777)" font-size="25" font-family="Philosopher-Bold, Philosopher" font-weight="700"><tspan x="0" y="0">E</tspan></text>
    <text id="G" transform="translate(1031 750)" font-size="25" font-family="Philosopher-Bold, Philosopher" font-weight="700"><tspan x="0" y="0">G</tspan></text>
    <path id="path14" d="M300.3-815.109c-.411,0-.822-.205-1.233-.205a4.491,4.491,0,0,1-1.027-.616,4.3,4.3,0,0,1-.822-1.232,11.463,11.463,0,0,1-1.027-1.643l-7.6-18.694h-1.027L277.5-814.287h22.8v-.822" transform="translate(922.877 1572.314)" fill="#131212" fill-rule="evenodd"/>
    <path id="path14-2" data-name="path14" stroke="#000" d="M300.3-815.109c-.411,0-.822-.205-1.233-.205a4.491,4.491,0,0,1-1.027-.616,4.3,4.3,0,0,1-.822-1.232,11.463,11.463,0,0,1-1.027-1.643l-7.6-18.694h-1.027L277.5-814.287h22.8v-.822" fill="none" transform="translate(687.877 1591.314)" stroke-linecap="round" stroke-linejoin="round" stroke-width="1" fill-rule="evenodd"/>
  </g>
</svg>
